<mxfile host="app.diagrams.net" modified="2023-10-07T09:01:52.694Z" agent="Mozilla/5.0 (Macintosh; Intel Mac OS X 10_15_7) AppleWebKit/605.1.15 (KHTML, like Gecko) Version/16.6 Safari/605.1.15" etag="AyY5XFLlSa2dhqD_lt9G" version="22.0.4" type="device">
  <diagram name="Page-1" id="4xVhMeCdvF7blxwOqcNw">
    <mxGraphModel dx="-375" dy="-381" grid="0" gridSize="10" guides="1" tooltips="1" connect="1" arrows="1" fold="1" page="0" pageScale="1" pageWidth="850" pageHeight="1100" background="#232323" math="0" shadow="0">
      <root>
        <mxCell id="0" />
        <mxCell id="1" parent="0" />
        <mxCell id="JXEg91spkGCKNvsM-9QB-5" value="&lt;font face=&quot;Comic Sans MS&quot;&gt;&lt;font&gt;C&lt;/font&gt;&lt;font color=&quot;#3375b3&quot;&gt;C&lt;/font&gt;&lt;/font&gt;" style="text;html=1;align=center;verticalAlign=middle;resizable=0;points=[];autosize=1;strokeColor=none;fillColor=none;fontColor=#51a4ec;fontStyle=1" parent="1" vertex="1">
          <mxGeometry x="475" y="437" width="33" height="27" as="geometry" />
        </mxCell>
      </root>
    </mxGraphModel>
  </diagram>
</mxfile>
